<?xml version="1.0" encoding="UTF-8" standalone="no"?>
<!DOCTYPE svg PUBLIC "-//W3C//DTD SVG 1.1//EN"
 "http://www.w3.org/Graphics/SVG/1.1/DTD/svg11.dtd">
<!-- Generated by graphviz version 2.43.0 (0)
 -->
<!-- Title: %3 Pages: 1 -->
<svg width="402pt" height="620pt"
 viewBox="0.00 0.00 402.00 620.00" xmlns="http://www.w3.org/2000/svg" xmlns:xlink="http://www.w3.org/1999/xlink">
<g id="graph0" class="graph" transform="scale(1 1) rotate(0) translate(4 616)">
<title>%3</title>
<polygon fill="white" stroke="transparent" points="-4,4 -4,-616 398,-616 398,4 -4,4"/>
<!-- 0 -->
<g id="node1" class="node">
<title>0</title>
<ellipse fill="none" stroke="black" cx="255" cy="-594" rx="27" ry="18"/>
<text text-anchor="middle" x="255" y="-590.3" font-family="Times,serif" font-size="14.00">DA</text>
</g>
<!-- 1 -->
<g id="node2" class="node">
<title>1</title>
<ellipse fill="none" stroke="black" cx="228" cy="-522" rx="27" ry="18"/>
<text text-anchor="middle" x="228" y="-518.3" font-family="Times,serif" font-size="14.00">xn</text>
</g>
<!-- 0&#45;&#45;1 -->
<g id="edge1" class="edge">
<title>0&#45;&#45;1</title>
<path fill="none" stroke="black" d="M248.6,-576.41C244.36,-565.41 238.81,-551.03 234.54,-539.96"/>
</g>
<!-- 10 -->
<g id="node11" class="node">
<title>10</title>
<ellipse fill="none" stroke="black" cx="333" cy="-378" rx="33.29" ry="18"/>
<text text-anchor="middle" x="333" y="-374.3" font-family="Times,serif" font-size="14.00">start</text>
</g>
<!-- 0&#45;&#45;10 -->
<g id="edge9" class="edge">
<title>0&#45;&#45;10</title>
<path fill="none" stroke="black" d="M263.67,-576.81C269.25,-566.34 276.62,-552.4 283,-540 299.36,-508.18 308.09,-502.07 319,-468 326.77,-443.72 330.32,-414.28 331.88,-396.09"/>
</g>
<!-- 4 -->
<g id="node5" class="node">
<title>4</title>
<ellipse fill="none" stroke="black" cx="259" cy="-162" rx="27" ry="18"/>
<text text-anchor="middle" x="259" y="-158.3" font-family="Times,serif" font-size="14.00">gx</text>
</g>
<!-- 1&#45;&#45;4 -->
<g id="edge7" class="edge">
<title>1&#45;&#45;4</title>
<path fill="none" stroke="black" d="M251.78,-513.25C297.68,-496.63 394,-452.95 394,-379 394,-379 394,-379 394,-305 394,-239.86 318.46,-192.72 280.39,-173.09"/>
</g>
<!-- 6 -->
<g id="node7" class="node">
<title>6</title>
<ellipse fill="none" stroke="black" cx="283" cy="-450" rx="27" ry="18"/>
<text text-anchor="middle" x="283" y="-446.3" font-family="Times,serif" font-size="14.00">dj</text>
</g>
<!-- 1&#45;&#45;6 -->
<g id="edge5" class="edge">
<title>1&#45;&#45;6</title>
<path fill="none" stroke="black" d="M239.93,-505.81C249.16,-494.07 261.87,-477.89 271.09,-466.16"/>
</g>
<!-- 7 -->
<g id="node8" class="node">
<title>7</title>
<ellipse fill="none" stroke="black" cx="268" cy="-306" rx="27" ry="18"/>
<text text-anchor="middle" x="268" y="-302.3" font-family="Times,serif" font-size="14.00">PW</text>
</g>
<!-- 1&#45;&#45;7 -->
<g id="edge21" class="edge">
<title>1&#45;&#45;7</title>
<path fill="none" stroke="black" d="M231.21,-503.85C238.71,-463.68 257.37,-363.89 264.83,-323.94"/>
</g>
<!-- 9 -->
<g id="node10" class="node">
<title>9</title>
<ellipse fill="none" stroke="black" cx="102" cy="-234" rx="27" ry="18"/>
<text text-anchor="middle" x="102" y="-230.3" font-family="Times,serif" font-size="14.00">ak</text>
</g>
<!-- 1&#45;&#45;9 -->
<g id="edge19" class="edge">
<title>1&#45;&#45;9</title>
<path fill="none" stroke="black" d="M204.93,-512.63C185.52,-504.34 158.65,-489.73 144,-468 97.48,-398.98 98.27,-293.36 100.64,-252.23"/>
</g>
<!-- 2 -->
<g id="node3" class="node">
<title>2</title>
<ellipse fill="none" stroke="black" cx="132" cy="-90" rx="27" ry="18"/>
<text text-anchor="middle" x="132" y="-86.3" font-family="Times,serif" font-size="14.00">KD</text>
</g>
<!-- 3 -->
<g id="node4" class="node">
<title>3</title>
<ellipse fill="none" stroke="black" cx="204" cy="-18" rx="27" ry="18"/>
<text text-anchor="middle" x="204" y="-14.3" font-family="Times,serif" font-size="14.00">ut</text>
</g>
<!-- 2&#45;&#45;3 -->
<g id="edge2" class="edge">
<title>2&#45;&#45;3</title>
<path fill="none" stroke="black" d="M146.57,-74.83C158.98,-62.77 176.73,-45.51 189.2,-33.38"/>
</g>
<!-- 3&#45;&#45;4 -->
<g id="edge10" class="edge">
<title>3&#45;&#45;4</title>
<path fill="none" stroke="black" d="M216.75,-34.3C224.56,-44.41 234.15,-58.29 240,-72 250.17,-95.83 255.11,-125.65 257.34,-144.01"/>
</g>
<!-- 5 -->
<g id="node6" class="node">
<title>5</title>
<ellipse fill="none" stroke="black" cx="204" cy="-90" rx="27" ry="18"/>
<text text-anchor="middle" x="204" y="-86.3" font-family="Times,serif" font-size="14.00">ll</text>
</g>
<!-- 4&#45;&#45;5 -->
<g id="edge3" class="edge">
<title>4&#45;&#45;5</title>
<path fill="none" stroke="black" d="M247.07,-145.81C237.84,-134.07 225.13,-117.89 215.91,-106.16"/>
</g>
<!-- 5&#45;&#45;1 -->
<g id="edge13" class="edge">
<title>5&#45;&#45;1</title>
<path fill="none" stroke="black" d="M195.13,-107.06C181.76,-132.82 158,-185.32 158,-233 158,-379 158,-379 158,-379 158,-429.85 194.56,-481.36 214.83,-506.02"/>
</g>
<!-- 5&#45;&#45;3 -->
<g id="edge6" class="edge">
<title>5&#45;&#45;3</title>
<path fill="none" stroke="black" d="M204,-71.7C204,-60.85 204,-46.92 204,-36.1"/>
</g>
<!-- 6&#45;&#45;0 -->
<g id="edge12" class="edge">
<title>6&#45;&#45;0</title>
<path fill="none" stroke="black" d="M279.61,-468.19C274.22,-495.52 263.76,-548.58 258.38,-575.87"/>
</g>
<!-- 6&#45;&#45;7 -->
<g id="edge4" class="edge">
<title>6&#45;&#45;7</title>
<path fill="none" stroke="black" d="M281.19,-431.87C278.31,-404.58 272.7,-351.52 269.82,-324.19"/>
</g>
<!-- 6&#45;&#45;10 -->
<g id="edge16" class="edge">
<title>6&#45;&#45;10</title>
<path fill="none" stroke="black" d="M294.1,-433.46C302.27,-422.03 313.34,-406.52 321.59,-394.98"/>
</g>
<!-- 11 -->
<g id="node12" class="node">
<title>11</title>
<ellipse fill="none" stroke="black" cx="213" cy="-234" rx="27" ry="18"/>
<text text-anchor="middle" x="213" y="-230.3" font-family="Times,serif" font-size="14.00">YM</text>
</g>
<!-- 6&#45;&#45;11 -->
<g id="edge14" class="edge">
<title>6&#45;&#45;11</title>
<path fill="none" stroke="black" d="M275.1,-432.36C264.14,-408.73 244.28,-363.87 232,-324 224.42,-299.39 218.79,-270.04 215.7,-251.96"/>
</g>
<!-- 7&#45;&#45;4 -->
<g id="edge17" class="edge">
<title>7&#45;&#45;4</title>
<path fill="none" stroke="black" d="M266.91,-287.87C265.18,-260.58 261.82,-207.52 260.09,-180.19"/>
</g>
<!-- 7&#45;&#45;9 -->
<g id="edge20" class="edge">
<title>7&#45;&#45;9</title>
<path fill="none" stroke="black" d="M245.61,-295.56C213.84,-282.16 156.02,-257.78 124.3,-244.4"/>
</g>
<!-- 8 -->
<g id="node9" class="node">
<title>8</title>
<ellipse fill="none" stroke="black" cx="27" cy="-306" rx="27" ry="18"/>
<text text-anchor="middle" x="27" y="-302.3" font-family="Times,serif" font-size="14.00">dg</text>
</g>
<!-- 8&#45;&#45;9 -->
<g id="edge8" class="edge">
<title>8&#45;&#45;9</title>
<path fill="none" stroke="black" d="M42.18,-290.83C55.19,-278.69 73.84,-261.28 86.85,-249.14"/>
</g>
<!-- 9&#45;&#45;0 -->
<g id="edge25" class="edge">
<title>9&#45;&#45;0</title>
<path fill="none" stroke="black" d="M98.05,-251.94C92.22,-278.45 82,-331.44 82,-377 82,-451 82,-451 82,-451 82,-527.16 183.41,-569.94 230.95,-585.81"/>
</g>
<!-- 12 -->
<g id="node13" class="node">
<title>12</title>
<ellipse fill="none" stroke="black" cx="102" cy="-162" rx="27.9" ry="18"/>
<text text-anchor="middle" x="102" y="-158.3" font-family="Times,serif" font-size="14.00">end</text>
</g>
<!-- 9&#45;&#45;12 -->
<g id="edge24" class="edge">
<title>9&#45;&#45;12</title>
<path fill="none" stroke="black" d="M102,-215.7C102,-204.85 102,-190.92 102,-180.1"/>
</g>
<!-- 10&#45;&#45;7 -->
<g id="edge15" class="edge">
<title>10&#45;&#45;7</title>
<path fill="none" stroke="black" d="M318.57,-361.46C307.65,-349.7 292.74,-333.64 281.94,-322.01"/>
</g>
<!-- 11&#45;&#45;4 -->
<g id="edge18" class="edge">
<title>11&#45;&#45;4</title>
<path fill="none" stroke="black" d="M223.44,-217.12C230.97,-205.66 241.08,-190.26 248.6,-178.82"/>
</g>
<!-- 11&#45;&#45;5 -->
<g id="edge11" class="edge">
<title>11&#45;&#45;5</title>
<path fill="none" stroke="black" d="M211.91,-215.87C210.18,-188.58 206.82,-135.52 205.09,-108.19"/>
</g>
<!-- 11&#45;&#45;12 -->
<g id="edge22" class="edge">
<title>11&#45;&#45;12</title>
<path fill="none" stroke="black" d="M193.92,-220.97C173.59,-208.15 141.58,-187.96 121.2,-175.11"/>
</g>
<!-- 12&#45;&#45;5 -->
<g id="edge23" class="edge">
<title>12&#45;&#45;5</title>
<path fill="none" stroke="black" d="M120.71,-148.16C139.23,-135.45 167.4,-116.12 185.75,-103.52"/>
</g>
</g>
</svg>
